<svg version="1.1" xmlns="http://www.w3.org/2000/svg" xmlns:xlink="http://www.w3.org/1999/xlink" width="74.00003" height="152.66666"><g transform="translate(-194.33334,-116.33334)"><g data-paper-data="{&quot;isPaintingLayer&quot;:true}" fill="none" fill-rule="nonzero" stroke="none" stroke-width="none" stroke-linecap="butt" stroke-linejoin="miter" stroke-miterlimit="10" stroke-dasharray="" stroke-dashoffset="0" font-family="none" font-weight="none" font-size="none" text-anchor="none" style="mix-blend-mode: normal"><path d="M194.33334,269v-152.66666h74.00003v152.66666z" fill="#9966ff" stroke-width="0"/><path d="M229.40064,229.91224c-4.91224,-0.9327 -3.66302,-2.94264 -3.66302,-2.94264l-1,-2.33333c-1.84611,-4.6182 -5.61027,-8.5588 -9.72093,-11.39628c-1.30388,-0.90004 -2.50317,-1.96753 -3.89601,-2.72262c-0.40275,-0.21834 -1.04143,0.01976 -1.33333,-0.33333c-2.04383,-2.47225 -5.28769,-5.72937 -4.0964,-8.70764c1.69387,-3.63572 4.10072,-6.07636 6.48214,-9.2499c6.80493,-9.06843 15.24639,-22.80985 27.33827,-24.82513c0,0 4.93197,-0.82198 5.75395,4.10999c0.82198,4.93197 -4.10999,5.75395 -4.10999,5.75395c-0.76822,0.12803 -1.54084,0.42638 -2.31025,0.60066c-0.2192,0.22681 -0.73925,0.46601 -0.9762,0.66956c-1.02169,0.87768 -2.20909,1.55455 -3.20218,2.46446c-2.01515,1.84635 -3.86278,3.93382 -5.7978,5.86885c-4.01083,4.01087 -6.77157,8.98096 -10.36112,13.33208c-0.41711,0.50561 -1.24157,1.33798 -1.98924,2.23304c1.43899,0.82669 2.96786,1.74987 3.79815,2.32604c5.87227,4.07502 10.70855,9.41981 13.61238,15.93706l1,2.33333c0,0 -0.61619,7.81454 -5.52843,6.88184z" fill="#000000" stroke-width="0.5"/></g></g></svg>