<svg version="1.1" xmlns="http://www.w3.org/2000/svg" xmlns:xlink="http://www.w3.org/1999/xlink" width="74.00003" height="152.66666"><g transform="translate(-194.33334,-116.33334)"><g data-paper-data="{&quot;isPaintingLayer&quot;:true}" fill="none" fill-rule="nonzero" stroke="none" stroke-width="none" stroke-linecap="butt" stroke-linejoin="miter" stroke-miterlimit="10" stroke-dasharray="" stroke-dashoffset="0" font-family="none" font-weight="none" font-size="none" text-anchor="none" style="mix-blend-mode: normal"><path d="M194.33334,269v-152.66666h74.00003v152.66666z" data-paper-data="{&quot;origPos&quot;:null,&quot;index&quot;:null}" fill="#9966ff" stroke-width="0"/><path d="M233.26608,230.3363c-4.91224,0.9327 -5.52843,-6.88184 -5.52843,-6.88184l1,-2.33333c2.90383,-6.51725 7.74011,-11.86204 13.61238,-15.93706c0.83029,-0.57617 2.35916,-1.49935 3.79815,-2.32604c-0.74767,-0.89506 -1.57213,-1.72743 -1.98924,-2.23304c-3.58955,-4.35112 -6.35029,-9.32121 -10.36112,-13.33208c-1.93502,-1.93503 -3.78265,-4.0225 -5.7978,-5.86885c-0.99309,-0.90991 -2.18049,-1.58678 -3.20218,-2.46446c-0.23695,-0.20355 -0.757,-0.44275 -0.9762,-0.66956c-0.76941,-0.17428 -1.54203,-0.47263 -2.31025,-0.60066c0,0 -4.93197,-0.82198 -4.10999,-5.75395c0.82198,-4.93197 5.75395,-4.10999 5.75395,-4.10999c12.09188,2.01528 20.53334,15.7567 27.33827,24.82513c2.38142,3.17354 4.78827,5.61418 6.48214,9.2499c1.19129,2.97827 -2.05257,6.23539 -4.0964,8.70764c-0.2919,0.35309 -0.93058,0.11499 -1.33333,0.33333c-1.39284,0.75509 -2.59213,1.82258 -3.89601,2.72262c-4.11066,2.83748 -7.87482,6.77808 -9.72093,11.39628l-1,2.33333c0,0 1.24922,2.00994 -3.66302,2.94264z" data-paper-data="{&quot;origPos&quot;:null,&quot;index&quot;:null}" fill="#000000" stroke-width="0.5"/></g></g></svg>